<?xml version="1.0" standalone="no"?>
<!DOCTYPE svg PUBLIC "-//W3C//DTD SVG 20010904//EN"
 "http://www.w3.org/TR/2001/REC-SVG-20010904/DTD/svg10.dtd">
<svg version="1.0" xmlns="http://www.w3.org/2000/svg"
 width="1280.000000pt" height="1257.000000pt" viewBox="0 0 1280.000000 1257.000000"
 preserveAspectRatio="xMidYMid meet">
<g transform="translate(0.000000,1257.000000) scale(0.100000,-0.100000)"
fill="#000000" stroke="none">
<path d="M6505 12479 c-429 -11 -1022 -89 -1480 -195 -718 -166 -1276 -414
-1710 -760 -219 -175 -484 -460 -647 -694 -242 -350 -421 -779 -497 -1195 -39
-212 -54 -388 -53 -650 0 -474 59 -907 207 -1510 160 -658 305 -1096 461
-1394 107 -205 195 -314 379 -469 455 -384 495 -432 729 -870 233 -437 436
-706 816 -1082 173 -172 201 -204 233 -269 20 -40 37 -82 37 -92 0 -24 -71
-76 -181 -134 -64 -33 -116 -51 -200 -69 -231 -49 -377 -141 -774 -487 -324
-282 -436 -366 -603 -449 -162 -80 -442 -176 -765 -261 -343 -90 -569 -156
-702 -204 -134 -49 -300 -127 -370 -175 -22 -15 -89 -52 -150 -83 -237 -121
-421 -254 -606 -437 -216 -215 -373 -438 -488 -695 -46 -105 -111 -276 -111
-296 0 -5 2486 -9 6340 -9 3487 0 6340 4 6340 8 0 13 -271 286 -365 369 -287
252 -733 553 -819 553 -30 0 -39 4 -43 20 -4 15 -54 45 -172 103 -455 227
-842 380 -1305 514 -79 23 -133 45 -140 55 -11 18 16 154 116 578 95 407 216
831 280 982 27 64 7 58 490 143 172 31 364 69 427 85 350 92 536 248 613 515
20 70 23 102 23 260 0 208 2 198 -100 415 -138 291 -139 360 -12 620 54 111
61 133 65 198 4 63 1 79 -22 126 -15 30 -63 93 -106 140 -44 47 -80 89 -80 92
0 4 20 31 45 60 56 65 75 109 75 171 0 78 -16 114 -111 260 -128 194 -143 228
-144 333 0 116 24 162 170 325 63 70 126 151 140 180 37 74 50 172 36 259 -30
181 -155 305 -565 556 -65 40 -184 124 -265 187 -389 303 -529 466 -562 657
-14 82 -8 157 26 321 29 142 33 299 10 390 -20 79 -81 204 -138 285 -25 36
-107 137 -183 225 -201 234 -243 303 -379 630 -97 232 -166 358 -298 545 -433
613 -1032 1030 -1742 1210 -382 97 -640 121 -1170 109z"/>
</g>
</svg>
